<?xml version="1.0" encoding="UTF-8"?>
<svg xmlns="http://www.w3.org/2000/svg"
     xmlns:xlink="http://www.w3.org/1999/xlink"
     xmlns:gadfly="http://www.gadflyjl.org/ns"
     version="1.2"
     width="203.2mm" height="101.6mm" viewBox="0 0 203.2 101.6"
     stroke="none"
     fill="#000000"
     stroke-width="0.3"
     font-size="3.88"
>
<defs>
  <marker id="arrow" markerWidth="15" markerHeight="7" refX="5" refY="3.5" orient="auto" markerUnits="strokeWidth">
    <path d="M0,0 L15,3.5 L0,7 z" stroke="context-stroke" fill="context-stroke"/>
  </marker>
</defs>
<g class="plotroot" id="img-d712e30b-1">
  <g font-size="3.88" font-family="'PT Sans','Helvetica Neue','Helvetica',sans-serif" fill="#564A55" stroke="#000000" stroke-opacity="0.000" id="img-d712e30b-2">
    <g transform="translate(98.69,89.99)">
      <g class="primitive">
        <text text-anchor="middle" dy="0.6em">individual</text>
      </g>
    </g>
  </g>
  <g class="guide xlabels" font-size="2.82" font-family="'PT Sans Caption','Helvetica Neue','Helvetica',sans-serif" fill="#6C606B" id="img-d712e30b-3">
    <g transform="translate(25.79,83.31)">
      <g class="primitive">
        <text text-anchor="middle" dy="0.6em">mgr01</text>
      </g>
    </g>
    <g transform="translate(41.99,83.31)">
      <g class="primitive">
        <text text-anchor="middle" dy="0.6em">mgr02</text>
      </g>
    </g>
    <g transform="translate(58.19,83.31)">
      <g class="primitive">
        <text text-anchor="middle" dy="0.6em">mgr03</text>
      </g>
    </g>
    <g transform="translate(74.39,83.31)">
      <g class="primitive">
        <text text-anchor="middle" dy="0.6em">mgr04</text>
      </g>
    </g>
    <g transform="translate(90.59,83.31)">
      <g class="primitive">
        <text text-anchor="middle" dy="0.6em">mgr05</text>
      </g>
    </g>
    <g transform="translate(106.79,83.31)">
      <g class="primitive">
        <text text-anchor="middle" dy="0.6em">mgr06</text>
      </g>
    </g>
    <g transform="translate(122.99,83.31)">
      <g class="primitive">
        <text text-anchor="middle" dy="0.6em">mgr07</text>
      </g>
    </g>
    <g transform="translate(139.19,83.31)">
      <g class="primitive">
        <text text-anchor="middle" dy="0.6em">mgr08</text>
      </g>
    </g>
    <g transform="translate(155.39,83.31)">
      <g class="primitive">
        <text text-anchor="middle" dy="0.6em">mgr09</text>
      </g>
    </g>
    <g transform="translate(171.59,83.31)">
      <g class="primitive">
        <text text-anchor="middle" dy="0.6em">mgr10</text>
      </g>
    </g>
  </g>
  <g class="guide colorkey" id="img-d712e30b-4">
    <g font-size="2.82" font-family="'PT Sans','Helvetica Neue','Helvetica',sans-serif" fill="#4C404B" id="img-d712e30b-5">
      <g transform="translate(184.01,57.04)">
        <g class="primitive">
          <text dy="0.35em">1</text>
        </g>
      </g>
    </g>
    <g shape-rendering="crispEdges" fill-opacity="0.5" stroke="#000000" stroke-opacity="0.000" id="img-d712e30b-6">
      <g transform="translate(182.35,56.9)" fill="#004D84">
        <path d="M-0.66,-0.14 L0.66,-0.14 0.66,0.14 -0.66,0.14  z" class="primitive"/>
      </g>
      <g transform="translate(182.35,56.61)" fill="#005B8D">
        <path d="M-0.66,-0.14 L0.66,-0.14 0.66,0.14 -0.66,0.14  z" class="primitive"/>
      </g>
      <g transform="translate(182.35,56.32)" fill="#006995">
        <path d="M-0.66,-0.14 L0.66,-0.14 0.66,0.14 -0.66,0.14  z" class="primitive"/>
      </g>
      <g transform="translate(182.35,56.03)" fill="#00769D">
        <path d="M-0.66,-0.14 L0.66,-0.14 0.66,0.14 -0.66,0.14  z" class="primitive"/>
      </g>
      <g transform="translate(182.35,55.75)" fill="#0083A3">
        <path d="M-0.66,-0.14 L0.66,-0.14 0.66,0.14 -0.66,0.14  z" class="primitive"/>
      </g>
      <g transform="translate(182.35,55.46)" fill="#278FA9">
        <path d="M-0.66,-0.14 L0.66,-0.14 0.66,0.14 -0.66,0.14  z" class="primitive"/>
      </g>
      <g transform="translate(182.35,55.17)" fill="#409BAF">
        <path d="M-0.66,-0.14 L0.66,-0.14 0.66,0.14 -0.66,0.14  z" class="primitive"/>
      </g>
      <g transform="translate(182.35,54.88)" fill="#55A7B5">
        <path d="M-0.66,-0.14 L0.66,-0.14 0.66,0.14 -0.66,0.14  z" class="primitive"/>
      </g>
      <g transform="translate(182.35,54.59)" fill="#69B2BA">
        <path d="M-0.66,-0.14 L0.66,-0.14 0.66,0.14 -0.66,0.14  z" class="primitive"/>
      </g>
      <g transform="translate(182.35,54.3)" fill="#7BBCC0">
        <path d="M-0.66,-0.14 L0.66,-0.14 0.66,0.14 -0.66,0.14  z" class="primitive"/>
      </g>
      <g transform="translate(182.35,54.01)" fill="#8DC6C5">
        <path d="M-0.66,-0.14 L0.66,-0.14 0.66,0.14 -0.66,0.14  z" class="primitive"/>
      </g>
      <g transform="translate(182.35,53.72)" fill="#9ED0CB">
        <path d="M-0.66,-0.14 L0.66,-0.14 0.66,0.14 -0.66,0.14  z" class="primitive"/>
      </g>
      <g transform="translate(182.35,53.44)" fill="#A5CFC7">
        <path d="M-0.66,-0.14 L0.66,-0.14 0.66,0.14 -0.66,0.14  z" class="primitive"/>
      </g>
      <g transform="translate(182.35,53.15)" fill="#ABCEC4">
        <path d="M-0.66,-0.14 L0.66,-0.14 0.66,0.14 -0.66,0.14  z" class="primitive"/>
      </g>
      <g transform="translate(182.35,52.86)" fill="#B1CCC2">
        <path d="M-0.66,-0.14 L0.66,-0.14 0.66,0.14 -0.66,0.14  z" class="primitive"/>
      </g>
      <g transform="translate(182.35,52.57)" fill="#B5CCC1">
        <path d="M-0.66,-0.14 L0.66,-0.14 0.66,0.14 -0.66,0.14  z" class="primitive"/>
      </g>
      <g transform="translate(182.35,52.28)" fill="#B7CBBF">
        <path d="M-0.66,-0.14 L0.66,-0.14 0.66,0.14 -0.66,0.14  z" class="primitive"/>
      </g>
      <g transform="translate(182.35,51.99)" fill="#B9CBBD">
        <path d="M-0.66,-0.14 L0.66,-0.14 0.66,0.14 -0.66,0.14  z" class="primitive"/>
      </g>
      <g transform="translate(182.35,51.7)" fill="#BBCBBB">
        <path d="M-0.66,-0.14 L0.66,-0.14 0.66,0.14 -0.66,0.14  z" class="primitive"/>
      </g>
      <g transform="translate(182.35,51.41)" fill="#BDCABA">
        <path d="M-0.66,-0.14 L0.66,-0.14 0.66,0.14 -0.66,0.14  z" class="primitive"/>
      </g>
      <g transform="translate(182.35,51.12)" fill="#BFCAB8">
        <path d="M-0.66,-0.14 L0.66,-0.14 0.66,0.14 -0.66,0.14  z" class="primitive"/>
      </g>
      <g transform="translate(182.35,50.84)" fill="#C2C9B7">
        <path d="M-0.66,-0.14 L0.66,-0.14 0.66,0.14 -0.66,0.14  z" class="primitive"/>
      </g>
      <g transform="translate(182.35,50.55)" fill="#C4C9B6">
        <path d="M-0.66,-0.14 L0.66,-0.14 0.66,0.14 -0.66,0.14  z" class="primitive"/>
      </g>
      <g transform="translate(182.35,50.26)" fill="#C6C8B5">
        <path d="M-0.66,-0.14 L0.66,-0.14 0.66,0.14 -0.66,0.14  z" class="primitive"/>
      </g>
      <g transform="translate(182.35,49.97)" fill="#C9C7B4">
        <path d="M-0.66,-0.14 L0.66,-0.14 0.66,0.14 -0.66,0.14  z" class="primitive"/>
      </g>
      <g transform="translate(182.35,49.68)" fill="#CCC7B2">
        <path d="M-0.66,-0.14 L0.66,-0.14 0.66,0.14 -0.66,0.14  z" class="primitive"/>
      </g>
      <g transform="translate(182.35,49.39)" fill="#CFC6AE">
        <path d="M-0.66,-0.14 L0.66,-0.14 0.66,0.14 -0.66,0.14  z" class="primitive"/>
      </g>
      <g transform="translate(182.35,49.1)" fill="#D4C5AA">
        <path d="M-0.66,-0.14 L0.66,-0.14 0.66,0.14 -0.66,0.14  z" class="primitive"/>
      </g>
      <g transform="translate(182.35,48.81)" fill="#D8C3A6">
        <path d="M-0.66,-0.14 L0.66,-0.14 0.66,0.14 -0.66,0.14  z" class="primitive"/>
      </g>
      <g transform="translate(182.35,48.53)" fill="#D3B79A">
        <path d="M-0.66,-0.14 L0.66,-0.14 0.66,0.14 -0.66,0.14  z" class="primitive"/>
      </g>
      <g transform="translate(182.35,48.24)" fill="#CDAB8E">
        <path d="M-0.66,-0.14 L0.66,-0.14 0.66,0.14 -0.66,0.14  z" class="primitive"/>
      </g>
      <g transform="translate(182.35,47.95)" fill="#C89E82">
        <path d="M-0.66,-0.14 L0.66,-0.14 0.66,0.14 -0.66,0.14  z" class="primitive"/>
      </g>
      <g transform="translate(182.35,47.66)" fill="#C19177">
        <path d="M-0.66,-0.14 L0.66,-0.14 0.66,0.14 -0.66,0.14  z" class="primitive"/>
      </g>
      <g transform="translate(182.35,47.37)" fill="#BA836C">
        <path d="M-0.66,-0.14 L0.66,-0.14 0.66,0.14 -0.66,0.14  z" class="primitive"/>
      </g>
      <g transform="translate(182.35,47.08)" fill="#B27563">
        <path d="M-0.66,-0.14 L0.66,-0.14 0.66,0.14 -0.66,0.14  z" class="primitive"/>
      </g>
      <g transform="translate(182.35,46.79)" fill="#AA665A">
        <path d="M-0.66,-0.14 L0.66,-0.14 0.66,0.14 -0.66,0.14  z" class="primitive"/>
      </g>
      <g transform="translate(182.35,46.5)" fill="#A05752">
        <path d="M-0.66,-0.14 L0.66,-0.14 0.66,0.14 -0.66,0.14  z" class="primitive"/>
      </g>
      <g transform="translate(182.35,46.22)" fill="#96484A">
        <path d="M-0.66,-0.14 L0.66,-0.14 0.66,0.14 -0.66,0.14  z" class="primitive"/>
      </g>
      <g transform="translate(182.35,45.93)" fill="#8B3844">
        <path d="M-0.66,-0.14 L0.66,-0.14 0.66,0.14 -0.66,0.14  z" class="primitive"/>
      </g>
      <g transform="translate(182.35,45.64)" fill="#7E273E">
        <path d="M-0.66,-0.14 L0.66,-0.14 0.66,0.14 -0.66,0.14  z" class="primitive"/>
      </g>
      <g stroke="#FFFFFF" stroke-width="0.2" id="img-d712e30b-7">
        <g transform="translate(182.35,57.04)">
          <path fill="none" d="M-0.66,0 L0.66,0 " class="primitive"/>
        </g>
      </g>
    </g>
    <g fill="#362A35" font-size="3.88" font-family="'PT Sans','Helvetica Neue','Helvetica',sans-serif" stroke="#000000" stroke-opacity="0.000" id="img-d712e30b-8">
      <g transform="translate(181.69,41.49)">
        <g class="primitive">
          <text dy="-0em">attendance</text>
        </g>
      </g>
    </g>
  </g>
  <g clip-path="url(#img-d712e30b-9)">
    <g id="img-d712e30b-10">
      <g pointer-events="visible" stroke-width="0.3" fill="#000000" fill-opacity="0.000" stroke="#000000" stroke-opacity="0.000" class="guide background" id="img-d712e30b-11">
        <g transform="translate(98.69,43.66)" id="img-d712e30b-12">
          <path d="M-81,-38.66 L81,-38.66 81,38.66 -81,38.66  z" class="primitive"/>
        </g>
      </g>
      <g class="guide ygridlines xfixed" stroke-dasharray="0.5,0.5" stroke-width="0.2" stroke="#D0D0E0" id="img-d712e30b-13">
        <g transform="translate(98.69,56.54)" id="img-d712e30b-14">
          <path fill="none" d="M-81,0 L81,0 " class="primitive"/>
        </g>
        <g transform="translate(98.69,30.77)" id="img-d712e30b-15">
          <path fill="none" d="M-81,0 L81,0 " class="primitive"/>
        </g>
      </g>
      <g class="guide xgridlines yfixed" stroke-dasharray="0.5,0.5" stroke-width="0.2" stroke="#D0D0E0" id="img-d712e30b-16">
        <g transform="translate(33.89,43.66)" id="img-d712e30b-17">
          <path fill="none" d="M0,-38.66 L0,38.66 " class="primitive"/>
        </g>
        <g transform="translate(50.09,43.66)" id="img-d712e30b-18">
          <path fill="none" d="M0,-38.66 L0,38.66 " class="primitive"/>
        </g>
        <g transform="translate(66.29,43.66)" id="img-d712e30b-19">
          <path fill="none" d="M0,-38.66 L0,38.66 " class="primitive"/>
        </g>
        <g transform="translate(82.49,43.66)" id="img-d712e30b-20">
          <path fill="none" d="M0,-38.66 L0,38.66 " class="primitive"/>
        </g>
        <g transform="translate(98.69,43.66)" id="img-d712e30b-21">
          <path fill="none" d="M0,-38.66 L0,38.66 " class="primitive"/>
        </g>
        <g transform="translate(114.89,43.66)" id="img-d712e30b-22">
          <path fill="none" d="M0,-38.66 L0,38.66 " class="primitive"/>
        </g>
        <g transform="translate(131.09,43.66)" id="img-d712e30b-23">
          <path fill="none" d="M0,-38.66 L0,38.66 " class="primitive"/>
        </g>
        <g transform="translate(147.29,43.66)" id="img-d712e30b-24">
          <path fill="none" d="M0,-38.66 L0,38.66 " class="primitive"/>
        </g>
        <g transform="translate(163.49,43.66)" id="img-d712e30b-25">
          <path fill="none" d="M0,-38.66 L0,38.66 " class="primitive"/>
        </g>
      </g>
      <g class="plotpanel" id="img-d712e30b-26">
        <metadata>
          <boundingbox value="17.69166666666669mm 5.0mm 162.00083333333333mm 77.31499999999998mm"/>
          <unitbox value="0.5 3.5 10.0 -3.0"/>
        </metadata>
        <g shape-rendering="crispEdges" class="geometry" stroke="#000000" stroke-opacity="0.000" id="img-d712e30b-27">
          <g transform="translate(25.82,69.4)" id="img-d712e30b-28" fill="#004D84" fill-opacity="0.5">
            <path d="M-8.13,-12.91 L8.13,-12.91 8.13,12.91 -8.13,12.91  z" class="primitive"/>
          </g>
          <g transform="translate(42.02,69.4)" id="img-d712e30b-29" fill="#004D84" fill-opacity="0.5">
            <path d="M-8.13,-12.91 L8.13,-12.91 8.13,12.91 -8.13,12.91  z" class="primitive"/>
          </g>
          <g transform="translate(58.22,69.4)" id="img-d712e30b-30" fill="#004D84" fill-opacity="0.5">
            <path d="M-8.13,-12.91 L8.13,-12.91 8.13,12.91 -8.13,12.91  z" class="primitive"/>
          </g>
          <g transform="translate(74.42,69.4)" id="img-d712e30b-31" fill="#004D84" fill-opacity="0.5">
            <path d="M-8.13,-12.91 L8.13,-12.91 8.13,12.91 -8.13,12.91  z" class="primitive"/>
          </g>
          <g transform="translate(90.62,69.4)" id="img-d712e30b-32" fill="#004D84" fill-opacity="0.5">
            <path d="M-8.13,-12.91 L8.13,-12.91 8.13,12.91 -8.13,12.91  z" class="primitive"/>
          </g>
          <g transform="translate(106.82,69.4)" id="img-d712e30b-33" fill="#004D84" fill-opacity="0.5">
            <path d="M-8.13,-12.91 L8.13,-12.91 8.13,12.91 -8.13,12.91  z" class="primitive"/>
          </g>
          <g transform="translate(123.02,69.4)" id="img-d712e30b-34" fill="#004D84" fill-opacity="0.5">
            <path d="M-8.13,-12.91 L8.13,-12.91 8.13,12.91 -8.13,12.91  z" class="primitive"/>
          </g>
          <g transform="translate(139.22,69.4)" id="img-d712e30b-35" fill="#004D84" fill-opacity="0.5">
            <path d="M-8.13,-12.91 L8.13,-12.91 8.13,12.91 -8.13,12.91  z" class="primitive"/>
          </g>
          <g transform="translate(155.42,69.4)" id="img-d712e30b-36" fill="#004D84" fill-opacity="0.5">
            <path d="M-8.13,-12.91 L8.13,-12.91 8.13,12.91 -8.13,12.91  z" class="primitive"/>
          </g>
          <g transform="translate(171.62,69.4)" id="img-d712e30b-37" fill="#004D84" fill-opacity="0.5">
            <path d="M-8.13,-12.91 L8.13,-12.91 8.13,12.91 -8.13,12.91  z" class="primitive"/>
          </g>
          <g transform="translate(25.82,43.63)" id="img-d712e30b-38" fill="#004D84" fill-opacity="0.5">
            <path d="M-8.13,-12.91 L8.13,-12.91 8.13,12.91 -8.13,12.91  z" class="primitive"/>
          </g>
          <g transform="translate(42.02,43.63)" id="img-d712e30b-39" fill="#004D84" fill-opacity="0.5">
            <path d="M-8.13,-12.91 L8.13,-12.91 8.13,12.91 -8.13,12.91  z" class="primitive"/>
          </g>
          <g transform="translate(58.22,43.63)" id="img-d712e30b-40" fill="#004D84" fill-opacity="0.5">
            <path d="M-8.13,-12.91 L8.13,-12.91 8.13,12.91 -8.13,12.91  z" class="primitive"/>
          </g>
          <g transform="translate(74.42,43.63)" id="img-d712e30b-41" fill="#004D84" fill-opacity="0.5">
            <path d="M-8.13,-12.91 L8.13,-12.91 8.13,12.91 -8.13,12.91  z" class="primitive"/>
          </g>
          <g transform="translate(90.62,43.63)" id="img-d712e30b-42" fill="#004D84" fill-opacity="0.5">
            <path d="M-8.13,-12.91 L8.13,-12.91 8.13,12.91 -8.13,12.91  z" class="primitive"/>
          </g>
          <g transform="translate(106.82,43.63)" id="img-d712e30b-43" fill="#004D84" fill-opacity="0.5">
            <path d="M-8.13,-12.91 L8.13,-12.91 8.13,12.91 -8.13,12.91  z" class="primitive"/>
          </g>
          <g transform="translate(123.02,43.63)" id="img-d712e30b-44" fill="#004D84" fill-opacity="0.5">
            <path d="M-8.13,-12.91 L8.13,-12.91 8.13,12.91 -8.13,12.91  z" class="primitive"/>
          </g>
          <g transform="translate(139.22,43.63)" id="img-d712e30b-45" fill="#004D84" fill-opacity="0.5">
            <path d="M-8.13,-12.91 L8.13,-12.91 8.13,12.91 -8.13,12.91  z" class="primitive"/>
          </g>
          <g transform="translate(155.42,43.63)" id="img-d712e30b-46" fill="#004D84" fill-opacity="0.5">
            <path d="M-8.13,-12.91 L8.13,-12.91 8.13,12.91 -8.13,12.91  z" class="primitive"/>
          </g>
          <g transform="translate(171.62,43.63)" id="img-d712e30b-47" fill="#004D84" fill-opacity="0.5">
            <path d="M-8.13,-12.91 L8.13,-12.91 8.13,12.91 -8.13,12.91  z" class="primitive"/>
          </g>
          <g transform="translate(25.82,17.86)" id="img-d712e30b-48" fill="#004D84" fill-opacity="0.5">
            <path d="M-8.13,-12.91 L8.13,-12.91 8.13,12.91 -8.13,12.91  z" class="primitive"/>
          </g>
          <g transform="translate(42.02,17.86)" id="img-d712e30b-49" fill="#004D84" fill-opacity="0.5">
            <path d="M-8.13,-12.91 L8.13,-12.91 8.13,12.91 -8.13,12.91  z" class="primitive"/>
          </g>
          <g transform="translate(58.22,17.86)" id="img-d712e30b-50" fill="#004D84" fill-opacity="0.5">
            <path d="M-8.13,-12.91 L8.13,-12.91 8.13,12.91 -8.13,12.91  z" class="primitive"/>
          </g>
          <g transform="translate(74.42,17.86)" id="img-d712e30b-51" fill="#004D84" fill-opacity="0.5">
            <path d="M-8.13,-12.91 L8.13,-12.91 8.13,12.91 -8.13,12.91  z" class="primitive"/>
          </g>
          <g transform="translate(90.62,17.86)" id="img-d712e30b-52" fill="#004D84" fill-opacity="0.5">
            <path d="M-8.13,-12.91 L8.13,-12.91 8.13,12.91 -8.13,12.91  z" class="primitive"/>
          </g>
          <g transform="translate(106.82,17.86)" id="img-d712e30b-53" fill="#004D84" fill-opacity="0.5">
            <path d="M-8.13,-12.91 L8.13,-12.91 8.13,12.91 -8.13,12.91  z" class="primitive"/>
          </g>
          <g transform="translate(123.02,17.86)" id="img-d712e30b-54" fill="#004D84" fill-opacity="0.5">
            <path d="M-8.13,-12.91 L8.13,-12.91 8.13,12.91 -8.13,12.91  z" class="primitive"/>
          </g>
          <g transform="translate(139.22,17.86)" id="img-d712e30b-55" fill="#004D84" fill-opacity="0.5">
            <path d="M-8.13,-12.91 L8.13,-12.91 8.13,12.91 -8.13,12.91  z" class="primitive"/>
          </g>
          <g transform="translate(155.42,17.86)" id="img-d712e30b-56" fill="#004D84" fill-opacity="0.5">
            <path d="M-8.13,-12.91 L8.13,-12.91 8.13,12.91 -8.13,12.91  z" class="primitive"/>
          </g>
          <g transform="translate(171.62,17.86)" id="img-d712e30b-57" fill="#004D84" fill-opacity="0.5">
            <path d="M-8.13,-12.91 L8.13,-12.91 8.13,12.91 -8.13,12.91  z" class="primitive"/>
          </g>
        </g>
      </g>
    </g>
  </g>
  <g class="guide ylabels" font-size="2.82" font-family="'PT Sans Caption','Helvetica Neue','Helvetica',sans-serif" fill="#6C606B" id="img-d712e30b-58">
    <g transform="translate(16.69,69.43)" id="img-d712e30b-59">
      <g class="primitive">
        <text text-anchor="end" dy="0.35em">s1</text>
      </g>
    </g>
    <g transform="translate(16.69,43.66)" id="img-d712e30b-60">
      <g class="primitive">
        <text text-anchor="end" dy="0.35em">s2</text>
      </g>
    </g>
    <g transform="translate(16.69,17.89)" id="img-d712e30b-61">
      <g class="primitive">
        <text text-anchor="end" dy="0.35em">s3</text>
      </g>
    </g>
  </g>
  <g font-size="3.88" font-family="'PT Sans','Helvetica Neue','Helvetica',sans-serif" fill="#564A55" stroke="#000000" stroke-opacity="0.000" id="img-d712e30b-62">
    <g transform="translate(8.81,41.66)" id="img-d712e30b-63">
      <g class="primitive">
        <text text-anchor="middle" dy="0.35em" transform="rotate(-90,0, 2)">slot</text>
      </g>
    </g>
  </g>
</g>
<defs>
  <clipPath id="img-d712e30b-9">
    <path d="M17.69,5 L179.69,5 179.69,82.31 17.69,82.31 " />
  </clipPath>
</defs>
</svg>
