<?xml version="1.0" encoding="UTF-8"?>
<svg xmlns="http://www.w3.org/2000/svg"
     xmlns:xlink="http://www.w3.org/1999/xlink"
     xmlns:gadfly="http://www.gadflyjl.org/ns"
     version="1.2"
     width="203.2mm" height="101.6mm" viewBox="0 0 203.2 101.6"
     stroke="none"
     fill="#000000"
     stroke-width="0.3"
     font-size="3.88"
>
<defs>
  <marker id="arrow" markerWidth="15" markerHeight="7" refX="5" refY="3.5" orient="auto" markerUnits="strokeWidth">
    <path d="M0,0 L15,3.5 L0,7 z" stroke="context-stroke" fill="context-stroke"/>
  </marker>
</defs>
<g class="plotroot" id="img-d712e30b-1">
  <g font-size="3.88" font-family="'PT Sans','Helvetica Neue','Helvetica',sans-serif" fill="#564A55" stroke="#000000" stroke-opacity="0.000" id="img-d712e30b-2">
    <g transform="translate(97.65,89.99)">
      <g class="primitive">
        <text text-anchor="middle" dy="0.6em">individual</text>
      </g>
    </g>
  </g>
  <g class="guide xlabels" font-size="2.82" font-family="'PT Sans Caption','Helvetica Neue','Helvetica',sans-serif" fill="#6C606B" id="img-d712e30b-3">
    <g transform="translate(25.69,83.32)">
      <g class="primitive">
        <text text-anchor="middle" dy="0.6em">mgr01</text>
      </g>
    </g>
    <g transform="translate(41.68,83.32)">
      <g class="primitive">
        <text text-anchor="middle" dy="0.6em">mgr02</text>
      </g>
    </g>
    <g transform="translate(57.67,83.32)">
      <g class="primitive">
        <text text-anchor="middle" dy="0.6em">mgr03</text>
      </g>
    </g>
    <g transform="translate(73.66,83.32)">
      <g class="primitive">
        <text text-anchor="middle" dy="0.6em">mgr04</text>
      </g>
    </g>
    <g transform="translate(89.65,83.32)">
      <g class="primitive">
        <text text-anchor="middle" dy="0.6em">mgr05</text>
      </g>
    </g>
    <g transform="translate(105.64,83.32)">
      <g class="primitive">
        <text text-anchor="middle" dy="0.6em">mgr06</text>
      </g>
    </g>
    <g transform="translate(121.63,83.32)">
      <g class="primitive">
        <text text-anchor="middle" dy="0.6em">mgr07</text>
      </g>
    </g>
    <g transform="translate(137.62,83.32)">
      <g class="primitive">
        <text text-anchor="middle" dy="0.6em">mgr08</text>
      </g>
    </g>
    <g transform="translate(153.62,83.32)">
      <g class="primitive">
        <text text-anchor="middle" dy="0.6em">mgr09</text>
      </g>
    </g>
    <g transform="translate(169.61,83.32)">
      <g class="primitive">
        <text text-anchor="middle" dy="0.6em">mgr10</text>
      </g>
    </g>
  </g>
  <g class="guide colorkey" id="img-d712e30b-4">
    <g font-size="2.82" font-family="'PT Sans','Helvetica Neue','Helvetica',sans-serif" fill="#4C404B" id="img-d712e30b-5">
      <g transform="translate(181.92,58.1)">
        <g class="primitive">
          <text dy="0.35em">0.5</text>
        </g>
      </g>
      <g transform="translate(181.92,37.61)">
        <g class="primitive">
          <text dy="0.35em">2.0</text>
        </g>
      </g>
      <g transform="translate(181.92,51.27)">
        <g class="primitive">
          <text dy="0.35em">1.0</text>
        </g>
      </g>
      <g transform="translate(181.92,44.44)">
        <g class="primitive">
          <text dy="0.35em">1.5</text>
        </g>
      </g>
      <g transform="translate(181.92,64.92)">
        <g class="primitive">
          <text dy="0.35em">0.0</text>
        </g>
      </g>
    </g>
    <g shape-rendering="crispEdges" fill-opacity="0.5" stroke="#000000" stroke-opacity="0.000" id="img-d712e30b-6">
      <g transform="translate(180.26,64.58)" fill="#004D84">
        <path d="M-0.66,-0.34 L0.66,-0.34 0.66,0.34 -0.66,0.34  z" class="primitive"/>
      </g>
      <g transform="translate(180.26,63.9)" fill="#005B8D">
        <path d="M-0.66,-0.34 L0.66,-0.34 0.66,0.34 -0.66,0.34  z" class="primitive"/>
      </g>
      <g transform="translate(180.26,63.22)" fill="#006995">
        <path d="M-0.66,-0.34 L0.66,-0.34 0.66,0.34 -0.66,0.34  z" class="primitive"/>
      </g>
      <g transform="translate(180.26,62.54)" fill="#00769D">
        <path d="M-0.66,-0.34 L0.66,-0.34 0.66,0.34 -0.66,0.34  z" class="primitive"/>
      </g>
      <g transform="translate(180.26,61.85)" fill="#0083A3">
        <path d="M-0.66,-0.34 L0.66,-0.34 0.66,0.34 -0.66,0.34  z" class="primitive"/>
      </g>
      <g transform="translate(180.26,61.17)" fill="#278FA9">
        <path d="M-0.66,-0.34 L0.66,-0.34 0.66,0.34 -0.66,0.34  z" class="primitive"/>
      </g>
      <g transform="translate(180.26,60.49)" fill="#409BAF">
        <path d="M-0.66,-0.34 L0.66,-0.34 0.66,0.34 -0.66,0.34  z" class="primitive"/>
      </g>
      <g transform="translate(180.26,59.8)" fill="#55A7B5">
        <path d="M-0.66,-0.34 L0.66,-0.34 0.66,0.34 -0.66,0.34  z" class="primitive"/>
      </g>
      <g transform="translate(180.26,59.12)" fill="#69B2BA">
        <path d="M-0.66,-0.34 L0.66,-0.34 0.66,0.34 -0.66,0.34  z" class="primitive"/>
      </g>
      <g transform="translate(180.26,58.44)" fill="#7BBCC0">
        <path d="M-0.66,-0.34 L0.66,-0.34 0.66,0.34 -0.66,0.34  z" class="primitive"/>
      </g>
      <g transform="translate(180.26,57.76)" fill="#8DC6C5">
        <path d="M-0.66,-0.34 L0.66,-0.34 0.66,0.34 -0.66,0.34  z" class="primitive"/>
      </g>
      <g transform="translate(180.26,57.07)" fill="#9ED0CB">
        <path d="M-0.66,-0.34 L0.66,-0.34 0.66,0.34 -0.66,0.34  z" class="primitive"/>
      </g>
      <g transform="translate(180.26,56.39)" fill="#A5CFC7">
        <path d="M-0.66,-0.34 L0.66,-0.34 0.66,0.34 -0.66,0.34  z" class="primitive"/>
      </g>
      <g transform="translate(180.26,55.71)" fill="#ABCEC4">
        <path d="M-0.66,-0.34 L0.66,-0.34 0.66,0.34 -0.66,0.34  z" class="primitive"/>
      </g>
      <g transform="translate(180.26,55.02)" fill="#B1CCC2">
        <path d="M-0.66,-0.34 L0.66,-0.34 0.66,0.34 -0.66,0.34  z" class="primitive"/>
      </g>
      <g transform="translate(180.26,54.34)" fill="#B5CCC1">
        <path d="M-0.66,-0.34 L0.66,-0.34 0.66,0.34 -0.66,0.34  z" class="primitive"/>
      </g>
      <g transform="translate(180.26,53.66)" fill="#B7CBBF">
        <path d="M-0.66,-0.34 L0.66,-0.34 0.66,0.34 -0.66,0.34  z" class="primitive"/>
      </g>
      <g transform="translate(180.26,52.98)" fill="#B9CBBD">
        <path d="M-0.66,-0.34 L0.66,-0.34 0.66,0.34 -0.66,0.34  z" class="primitive"/>
      </g>
      <g transform="translate(180.26,52.29)" fill="#BBCBBB">
        <path d="M-0.66,-0.34 L0.66,-0.34 0.66,0.34 -0.66,0.34  z" class="primitive"/>
      </g>
      <g transform="translate(180.26,51.61)" fill="#BDCABA">
        <path d="M-0.66,-0.34 L0.66,-0.34 0.66,0.34 -0.66,0.34  z" class="primitive"/>
      </g>
      <g transform="translate(180.26,50.93)" fill="#BFCAB8">
        <path d="M-0.66,-0.34 L0.66,-0.34 0.66,0.34 -0.66,0.34  z" class="primitive"/>
      </g>
      <g transform="translate(180.26,50.24)" fill="#C2C9B7">
        <path d="M-0.66,-0.34 L0.66,-0.34 0.66,0.34 -0.66,0.34  z" class="primitive"/>
      </g>
      <g transform="translate(180.26,49.56)" fill="#C4C9B6">
        <path d="M-0.66,-0.34 L0.66,-0.34 0.66,0.34 -0.66,0.34  z" class="primitive"/>
      </g>
      <g transform="translate(180.26,48.88)" fill="#C6C8B5">
        <path d="M-0.66,-0.34 L0.66,-0.34 0.66,0.34 -0.66,0.34  z" class="primitive"/>
      </g>
      <g transform="translate(180.26,48.2)" fill="#C9C7B4">
        <path d="M-0.66,-0.34 L0.66,-0.34 0.66,0.34 -0.66,0.34  z" class="primitive"/>
      </g>
      <g transform="translate(180.26,47.51)" fill="#CCC7B2">
        <path d="M-0.66,-0.34 L0.66,-0.34 0.66,0.34 -0.66,0.34  z" class="primitive"/>
      </g>
      <g transform="translate(180.26,46.83)" fill="#CFC6AE">
        <path d="M-0.66,-0.34 L0.66,-0.34 0.66,0.34 -0.66,0.34  z" class="primitive"/>
      </g>
      <g transform="translate(180.26,46.15)" fill="#D4C5AA">
        <path d="M-0.66,-0.34 L0.66,-0.34 0.66,0.34 -0.66,0.34  z" class="primitive"/>
      </g>
      <g transform="translate(180.26,45.47)" fill="#D8C3A6">
        <path d="M-0.66,-0.34 L0.66,-0.34 0.66,0.34 -0.66,0.34  z" class="primitive"/>
      </g>
      <g transform="translate(180.26,44.78)" fill="#D3B79A">
        <path d="M-0.66,-0.34 L0.66,-0.34 0.66,0.34 -0.66,0.34  z" class="primitive"/>
      </g>
      <g transform="translate(180.26,44.1)" fill="#CDAB8E">
        <path d="M-0.66,-0.34 L0.66,-0.34 0.66,0.34 -0.66,0.34  z" class="primitive"/>
      </g>
      <g transform="translate(180.26,43.42)" fill="#C89E82">
        <path d="M-0.66,-0.34 L0.66,-0.34 0.66,0.34 -0.66,0.34  z" class="primitive"/>
      </g>
      <g transform="translate(180.26,42.73)" fill="#C19177">
        <path d="M-0.66,-0.34 L0.66,-0.34 0.66,0.34 -0.66,0.34  z" class="primitive"/>
      </g>
      <g transform="translate(180.26,42.05)" fill="#BA836C">
        <path d="M-0.66,-0.34 L0.66,-0.34 0.66,0.34 -0.66,0.34  z" class="primitive"/>
      </g>
      <g transform="translate(180.26,41.37)" fill="#B27563">
        <path d="M-0.66,-0.34 L0.66,-0.34 0.66,0.34 -0.66,0.34  z" class="primitive"/>
      </g>
      <g transform="translate(180.26,40.69)" fill="#AA665A">
        <path d="M-0.66,-0.34 L0.66,-0.34 0.66,0.34 -0.66,0.34  z" class="primitive"/>
      </g>
      <g transform="translate(180.26,40)" fill="#A05752">
        <path d="M-0.66,-0.34 L0.66,-0.34 0.66,0.34 -0.66,0.34  z" class="primitive"/>
      </g>
      <g transform="translate(180.26,39.32)" fill="#96484A">
        <path d="M-0.66,-0.34 L0.66,-0.34 0.66,0.34 -0.66,0.34  z" class="primitive"/>
      </g>
      <g transform="translate(180.26,38.64)" fill="#8B3844">
        <path d="M-0.66,-0.34 L0.66,-0.34 0.66,0.34 -0.66,0.34  z" class="primitive"/>
      </g>
      <g transform="translate(180.26,37.95)" fill="#7E273E">
        <path d="M-0.66,-0.34 L0.66,-0.34 0.66,0.34 -0.66,0.34  z" class="primitive"/>
      </g>
      <g stroke="#FFFFFF" stroke-width="0.2" id="img-d712e30b-7">
        <g transform="translate(180.26,58.1)">
          <path fill="none" d="M-0.66,0 L0.66,0 " class="primitive"/>
        </g>
        <g transform="translate(180.26,37.61)">
          <path fill="none" d="M-0.66,0 L0.66,0 " class="primitive"/>
        </g>
        <g transform="translate(180.26,51.27)">
          <path fill="none" d="M-0.66,0 L0.66,0 " class="primitive"/>
        </g>
        <g transform="translate(180.26,44.44)">
          <path fill="none" d="M-0.66,0 L0.66,0 " class="primitive"/>
        </g>
        <g transform="translate(180.26,64.92)">
          <path fill="none" d="M-0.66,0 L0.66,0 " class="primitive"/>
        </g>
      </g>
    </g>
    <g fill="#362A35" font-size="3.88" font-family="'PT Sans','Helvetica Neue','Helvetica',sans-serif" stroke="#000000" stroke-opacity="0.000" id="img-d712e30b-8">
      <g transform="translate(179.6,33.61)">
        <g class="primitive">
          <text dy="-0em">overbooking</text>
        </g>
      </g>
    </g>
  </g>
  <g clip-path="url(#img-d712e30b-9)">
    <g id="img-d712e30b-10">
      <g pointer-events="visible" stroke-width="0.3" fill="#000000" fill-opacity="0.000" stroke="#000000" stroke-opacity="0.000" class="guide background" id="img-d712e30b-11">
        <g transform="translate(97.65,43.66)" id="img-d712e30b-12">
          <path d="M-79.96,-38.66 L79.96,-38.66 79.96,38.66 -79.96,38.66  z" class="primitive"/>
        </g>
      </g>
      <g class="guide ygridlines xfixed" stroke-dasharray="0.5,0.5" stroke-width="0.2" stroke="#D0D0E0" id="img-d712e30b-13">
        <g transform="translate(97.65,56.54)" id="img-d712e30b-14">
          <path fill="none" d="M-79.96,0 L79.96,0 " class="primitive"/>
        </g>
        <g transform="translate(97.65,30.77)" id="img-d712e30b-15">
          <path fill="none" d="M-79.96,0 L79.96,0 " class="primitive"/>
        </g>
      </g>
      <g class="guide xgridlines yfixed" stroke-dasharray="0.5,0.5" stroke-width="0.2" stroke="#D0D0E0" id="img-d712e30b-16">
        <g transform="translate(33.68,43.66)" id="img-d712e30b-17">
          <path fill="none" d="M0,-38.66 L0,38.66 " class="primitive"/>
        </g>
        <g transform="translate(49.67,43.66)" id="img-d712e30b-18">
          <path fill="none" d="M0,-38.66 L0,38.66 " class="primitive"/>
        </g>
        <g transform="translate(65.66,43.66)" id="img-d712e30b-19">
          <path fill="none" d="M0,-38.66 L0,38.66 " class="primitive"/>
        </g>
        <g transform="translate(81.66,43.66)" id="img-d712e30b-20">
          <path fill="none" d="M0,-38.66 L0,38.66 " class="primitive"/>
        </g>
        <g transform="translate(97.65,43.66)" id="img-d712e30b-21">
          <path fill="none" d="M0,-38.66 L0,38.66 " class="primitive"/>
        </g>
        <g transform="translate(113.64,43.66)" id="img-d712e30b-22">
          <path fill="none" d="M0,-38.66 L0,38.66 " class="primitive"/>
        </g>
        <g transform="translate(129.63,43.66)" id="img-d712e30b-23">
          <path fill="none" d="M0,-38.66 L0,38.66 " class="primitive"/>
        </g>
        <g transform="translate(145.62,43.66)" id="img-d712e30b-24">
          <path fill="none" d="M0,-38.66 L0,38.66 " class="primitive"/>
        </g>
        <g transform="translate(161.61,43.66)" id="img-d712e30b-25">
          <path fill="none" d="M0,-38.66 L0,38.66 " class="primitive"/>
        </g>
      </g>
      <g class="plotpanel" id="img-d712e30b-26">
        <metadata>
          <boundingbox value="17.69166666666669mm 5.0mm 159.91083333333333mm 77.315mm"/>
          <unitbox value="0.5 3.5 10.0 -3.0"/>
        </metadata>
        <g shape-rendering="crispEdges" class="geometry" stroke="#000000" stroke-opacity="0.000" id="img-d712e30b-27">
          <g transform="translate(25.71,69.4)" id="img-d712e30b-28" fill="#004D84" fill-opacity="0.5">
            <path d="M-8.02,-12.91 L8.02,-12.91 8.02,12.91 -8.02,12.91  z" class="primitive"/>
          </g>
          <g transform="translate(41.7,69.4)" id="img-d712e30b-29" fill="#004D84" fill-opacity="0.5">
            <path d="M-8.02,-12.91 L8.02,-12.91 8.02,12.91 -8.02,12.91  z" class="primitive"/>
          </g>
          <g transform="translate(57.69,69.4)" id="img-d712e30b-30" fill="#7E273E" fill-opacity="0.5">
            <path d="M-8.02,-12.91 L8.02,-12.91 8.02,12.91 -8.02,12.91  z" class="primitive"/>
          </g>
          <g transform="translate(73.69,69.4)" id="img-d712e30b-31" fill="#BECAB9" fill-opacity="0.5">
            <path d="M-8.02,-12.91 L8.02,-12.91 8.02,12.91 -8.02,12.91  z" class="primitive"/>
          </g>
          <g transform="translate(89.68,69.4)" id="img-d712e30b-32" fill="#004D84" fill-opacity="0.5">
            <path d="M-8.02,-12.91 L8.02,-12.91 8.02,12.91 -8.02,12.91  z" class="primitive"/>
          </g>
          <g transform="translate(105.67,69.4)" id="img-d712e30b-33" fill="#BECAB9" fill-opacity="0.5">
            <path d="M-8.02,-12.91 L8.02,-12.91 8.02,12.91 -8.02,12.91  z" class="primitive"/>
          </g>
          <g transform="translate(121.66,69.4)" id="img-d712e30b-34" fill="#BECAB9" fill-opacity="0.5">
            <path d="M-8.02,-12.91 L8.02,-12.91 8.02,12.91 -8.02,12.91  z" class="primitive"/>
          </g>
          <g transform="translate(137.65,69.4)" id="img-d712e30b-35" fill="#004D84" fill-opacity="0.5">
            <path d="M-8.02,-12.91 L8.02,-12.91 8.02,12.91 -8.02,12.91  z" class="primitive"/>
          </g>
          <g transform="translate(153.64,69.4)" id="img-d712e30b-36" fill="#004D84" fill-opacity="0.5">
            <path d="M-8.02,-12.91 L8.02,-12.91 8.02,12.91 -8.02,12.91  z" class="primitive"/>
          </g>
          <g transform="translate(169.63,69.4)" id="img-d712e30b-37" fill="#7E273E" fill-opacity="0.5">
            <path d="M-8.02,-12.91 L8.02,-12.91 8.02,12.91 -8.02,12.91  z" class="primitive"/>
          </g>
          <g transform="translate(25.71,43.63)" id="img-d712e30b-38" fill="#BECAB9" fill-opacity="0.5">
            <path d="M-8.02,-12.91 L8.02,-12.91 8.02,12.91 -8.02,12.91  z" class="primitive"/>
          </g>
          <g transform="translate(41.7,43.63)" id="img-d712e30b-39" fill="#BECAB9" fill-opacity="0.5">
            <path d="M-8.02,-12.91 L8.02,-12.91 8.02,12.91 -8.02,12.91  z" class="primitive"/>
          </g>
          <g transform="translate(57.69,43.63)" id="img-d712e30b-40" fill="#004D84" fill-opacity="0.5">
            <path d="M-8.02,-12.91 L8.02,-12.91 8.02,12.91 -8.02,12.91  z" class="primitive"/>
          </g>
          <g transform="translate(73.69,43.63)" id="img-d712e30b-41" fill="#BECAB9" fill-opacity="0.5">
            <path d="M-8.02,-12.91 L8.02,-12.91 8.02,12.91 -8.02,12.91  z" class="primitive"/>
          </g>
          <g transform="translate(89.68,43.63)" id="img-d712e30b-42" fill="#BECAB9" fill-opacity="0.5">
            <path d="M-8.02,-12.91 L8.02,-12.91 8.02,12.91 -8.02,12.91  z" class="primitive"/>
          </g>
          <g transform="translate(105.67,43.63)" id="img-d712e30b-43" fill="#004D84" fill-opacity="0.5">
            <path d="M-8.02,-12.91 L8.02,-12.91 8.02,12.91 -8.02,12.91  z" class="primitive"/>
          </g>
          <g transform="translate(121.66,43.63)" id="img-d712e30b-44" fill="#004D84" fill-opacity="0.5">
            <path d="M-8.02,-12.91 L8.02,-12.91 8.02,12.91 -8.02,12.91  z" class="primitive"/>
          </g>
          <g transform="translate(137.65,43.63)" id="img-d712e30b-45" fill="#004D84" fill-opacity="0.5">
            <path d="M-8.02,-12.91 L8.02,-12.91 8.02,12.91 -8.02,12.91  z" class="primitive"/>
          </g>
          <g transform="translate(153.64,43.63)" id="img-d712e30b-46" fill="#BECAB9" fill-opacity="0.5">
            <path d="M-8.02,-12.91 L8.02,-12.91 8.02,12.91 -8.02,12.91  z" class="primitive"/>
          </g>
          <g transform="translate(169.63,43.63)" id="img-d712e30b-47" fill="#004D84" fill-opacity="0.5">
            <path d="M-8.02,-12.91 L8.02,-12.91 8.02,12.91 -8.02,12.91  z" class="primitive"/>
          </g>
          <g transform="translate(25.71,17.86)" id="img-d712e30b-48" fill="#004D84" fill-opacity="0.5">
            <path d="M-8.02,-12.91 L8.02,-12.91 8.02,12.91 -8.02,12.91  z" class="primitive"/>
          </g>
          <g transform="translate(41.7,17.86)" id="img-d712e30b-49" fill="#004D84" fill-opacity="0.5">
            <path d="M-8.02,-12.91 L8.02,-12.91 8.02,12.91 -8.02,12.91  z" class="primitive"/>
          </g>
          <g transform="translate(57.69,17.86)" id="img-d712e30b-50" fill="#004D84" fill-opacity="0.5">
            <path d="M-8.02,-12.91 L8.02,-12.91 8.02,12.91 -8.02,12.91  z" class="primitive"/>
          </g>
          <g transform="translate(73.69,17.86)" id="img-d712e30b-51" fill="#004D84" fill-opacity="0.5">
            <path d="M-8.02,-12.91 L8.02,-12.91 8.02,12.91 -8.02,12.91  z" class="primitive"/>
          </g>
          <g transform="translate(89.68,17.86)" id="img-d712e30b-52" fill="#BECAB9" fill-opacity="0.5">
            <path d="M-8.02,-12.91 L8.02,-12.91 8.02,12.91 -8.02,12.91  z" class="primitive"/>
          </g>
          <g transform="translate(105.67,17.86)" id="img-d712e30b-53" fill="#004D84" fill-opacity="0.5">
            <path d="M-8.02,-12.91 L8.02,-12.91 8.02,12.91 -8.02,12.91  z" class="primitive"/>
          </g>
          <g transform="translate(121.66,17.86)" id="img-d712e30b-54" fill="#004D84" fill-opacity="0.5">
            <path d="M-8.02,-12.91 L8.02,-12.91 8.02,12.91 -8.02,12.91  z" class="primitive"/>
          </g>
          <g transform="translate(137.65,17.86)" id="img-d712e30b-55" fill="#7E273E" fill-opacity="0.5">
            <path d="M-8.02,-12.91 L8.02,-12.91 8.02,12.91 -8.02,12.91  z" class="primitive"/>
          </g>
          <g transform="translate(153.64,17.86)" id="img-d712e30b-56" fill="#004D84" fill-opacity="0.5">
            <path d="M-8.02,-12.91 L8.02,-12.91 8.02,12.91 -8.02,12.91  z" class="primitive"/>
          </g>
          <g transform="translate(169.63,17.86)" id="img-d712e30b-57" fill="#004D84" fill-opacity="0.5">
            <path d="M-8.02,-12.91 L8.02,-12.91 8.02,12.91 -8.02,12.91  z" class="primitive"/>
          </g>
        </g>
      </g>
    </g>
  </g>
  <g class="guide ylabels" font-size="2.82" font-family="'PT Sans Caption','Helvetica Neue','Helvetica',sans-serif" fill="#6C606B" id="img-d712e30b-58">
    <g transform="translate(16.69,69.43)" id="img-d712e30b-59">
      <g class="primitive">
        <text text-anchor="end" dy="0.35em">s1</text>
      </g>
    </g>
    <g transform="translate(16.69,43.66)" id="img-d712e30b-60">
      <g class="primitive">
        <text text-anchor="end" dy="0.35em">s2</text>
      </g>
    </g>
    <g transform="translate(16.69,17.89)" id="img-d712e30b-61">
      <g class="primitive">
        <text text-anchor="end" dy="0.35em">s3</text>
      </g>
    </g>
  </g>
  <g font-size="3.88" font-family="'PT Sans','Helvetica Neue','Helvetica',sans-serif" fill="#564A55" stroke="#000000" stroke-opacity="0.000" id="img-d712e30b-62">
    <g transform="translate(8.81,41.66)" id="img-d712e30b-63">
      <g class="primitive">
        <text text-anchor="middle" dy="0.35em" transform="rotate(-90,0, 2)">slot</text>
      </g>
    </g>
  </g>
</g>
<defs>
  <clipPath id="img-d712e30b-9">
    <path d="M17.69,5 L177.6,5 177.6,82.32 17.69,82.32 " />
  </clipPath>
</defs>
</svg>
