<?xml version="1.0" encoding="UTF-8"?>
<svg xmlns="http://www.w3.org/2000/svg"
     xmlns:xlink="http://www.w3.org/1999/xlink"
     xmlns:gadfly="http://www.gadflyjl.org/ns"
     version="1.2"
     width="203.2mm" height="101.6mm" viewBox="0 0 203.2 101.6"
     stroke="none"
     fill="#000000"
     stroke-width="0.3"
     font-size="3.88"
>
<defs>
  <marker id="arrow" markerWidth="15" markerHeight="7" refX="5" refY="3.5" orient="auto" markerUnits="strokeWidth">
    <path d="M0,0 L15,3.5 L0,7 z" stroke="context-stroke" fill="context-stroke"/>
  </marker>
</defs>
<g class="plotroot" id="img-8055ba17-1">
  <g font-size="3.88" font-family="'PT Sans','Helvetica Neue','Helvetica',sans-serif" fill="#564A55" stroke="#000000" stroke-opacity="0.000" id="img-8055ba17-2">
    <g transform="translate(99.52,89.99)">
      <g class="primitive">
        <text text-anchor="middle" dy="0.6em">team</text>
      </g>
    </g>
  </g>
  <g class="guide xlabels" font-size="2.82" font-family="'PT Sans Caption','Helvetica Neue','Helvetica',sans-serif" fill="#6C606B" id="img-8055ba17-3">
    <g transform="translate(25.87,83.32)">
      <g class="primitive">
        <text text-anchor="middle" dy="0.6em">t01</text>
      </g>
    </g>
    <g transform="translate(42.24,83.32)">
      <g class="primitive">
        <text text-anchor="middle" dy="0.6em">t02</text>
      </g>
    </g>
    <g transform="translate(58.61,83.32)">
      <g class="primitive">
        <text text-anchor="middle" dy="0.6em">t03</text>
      </g>
    </g>
    <g transform="translate(74.97,83.32)">
      <g class="primitive">
        <text text-anchor="middle" dy="0.6em">t04</text>
      </g>
    </g>
    <g transform="translate(91.34,83.32)">
      <g class="primitive">
        <text text-anchor="middle" dy="0.6em">t05</text>
      </g>
    </g>
    <g transform="translate(107.7,83.32)">
      <g class="primitive">
        <text text-anchor="middle" dy="0.6em">t06</text>
      </g>
    </g>
    <g transform="translate(124.07,83.32)">
      <g class="primitive">
        <text text-anchor="middle" dy="0.6em">t07</text>
      </g>
    </g>
    <g transform="translate(140.44,83.32)">
      <g class="primitive">
        <text text-anchor="middle" dy="0.6em">t08</text>
      </g>
    </g>
    <g transform="translate(156.8,83.32)">
      <g class="primitive">
        <text text-anchor="middle" dy="0.6em">t09</text>
      </g>
    </g>
    <g transform="translate(173.17,83.32)">
      <g class="primitive">
        <text text-anchor="middle" dy="0.6em">t10</text>
      </g>
    </g>
  </g>
  <g class="guide colorkey" id="img-8055ba17-4">
    <g font-size="2.82" font-family="'PT Sans','Helvetica Neue','Helvetica',sans-serif" fill="#4C404B" id="img-8055ba17-5">
      <g transform="translate(185.66,41.55)">
        <g class="primitive">
          <text dy="0.35em">1.0</text>
        </g>
      </g>
      <g transform="translate(185.66,51.27)">
        <g class="primitive">
          <text dy="0.35em">0.5</text>
        </g>
      </g>
      <g transform="translate(185.66,60.98)">
        <g class="primitive">
          <text dy="0.35em">0.0</text>
        </g>
      </g>
    </g>
    <g shape-rendering="crispEdges" fill-opacity="0.5" stroke="#000000" stroke-opacity="0.000" id="img-8055ba17-6">
      <g transform="translate(184.01,60.74)" fill="#004D84">
        <path d="M-0.66,-0.24 L0.66,-0.24 0.66,0.24 -0.66,0.24  z" class="primitive"/>
      </g>
      <g transform="translate(184.01,60.26)" fill="#005B8D">
        <path d="M-0.66,-0.24 L0.66,-0.24 0.66,0.24 -0.66,0.24  z" class="primitive"/>
      </g>
      <g transform="translate(184.01,59.77)" fill="#006995">
        <path d="M-0.66,-0.24 L0.66,-0.24 0.66,0.24 -0.66,0.24  z" class="primitive"/>
      </g>
      <g transform="translate(184.01,59.28)" fill="#00769D">
        <path d="M-0.66,-0.24 L0.66,-0.24 0.66,0.24 -0.66,0.24  z" class="primitive"/>
      </g>
      <g transform="translate(184.01,58.8)" fill="#0083A3">
        <path d="M-0.66,-0.24 L0.66,-0.24 0.66,0.24 -0.66,0.24  z" class="primitive"/>
      </g>
      <g transform="translate(184.01,58.31)" fill="#278FA9">
        <path d="M-0.66,-0.24 L0.66,-0.24 0.66,0.24 -0.66,0.24  z" class="primitive"/>
      </g>
      <g transform="translate(184.01,57.83)" fill="#409BAF">
        <path d="M-0.66,-0.24 L0.66,-0.24 0.66,0.24 -0.66,0.24  z" class="primitive"/>
      </g>
      <g transform="translate(184.01,57.34)" fill="#55A7B5">
        <path d="M-0.66,-0.24 L0.66,-0.24 0.66,0.24 -0.66,0.24  z" class="primitive"/>
      </g>
      <g transform="translate(184.01,56.86)" fill="#69B2BA">
        <path d="M-0.66,-0.24 L0.66,-0.24 0.66,0.24 -0.66,0.24  z" class="primitive"/>
      </g>
      <g transform="translate(184.01,56.37)" fill="#7BBCC0">
        <path d="M-0.66,-0.24 L0.66,-0.24 0.66,0.24 -0.66,0.24  z" class="primitive"/>
      </g>
      <g transform="translate(184.01,55.88)" fill="#8DC6C5">
        <path d="M-0.66,-0.24 L0.66,-0.24 0.66,0.24 -0.66,0.24  z" class="primitive"/>
      </g>
      <g transform="translate(184.01,55.4)" fill="#9ED0CB">
        <path d="M-0.66,-0.24 L0.66,-0.24 0.66,0.24 -0.66,0.24  z" class="primitive"/>
      </g>
      <g transform="translate(184.01,54.91)" fill="#A5CFC7">
        <path d="M-0.66,-0.24 L0.66,-0.24 0.66,0.24 -0.66,0.24  z" class="primitive"/>
      </g>
      <g transform="translate(184.01,54.43)" fill="#ABCEC4">
        <path d="M-0.66,-0.24 L0.66,-0.24 0.66,0.24 -0.66,0.24  z" class="primitive"/>
      </g>
      <g transform="translate(184.01,53.94)" fill="#B1CCC2">
        <path d="M-0.66,-0.24 L0.66,-0.24 0.66,0.24 -0.66,0.24  z" class="primitive"/>
      </g>
      <g transform="translate(184.01,53.46)" fill="#B5CCC1">
        <path d="M-0.66,-0.24 L0.66,-0.24 0.66,0.24 -0.66,0.24  z" class="primitive"/>
      </g>
      <g transform="translate(184.01,52.97)" fill="#B7CBBF">
        <path d="M-0.66,-0.24 L0.66,-0.24 0.66,0.24 -0.66,0.24  z" class="primitive"/>
      </g>
      <g transform="translate(184.01,52.48)" fill="#B9CBBD">
        <path d="M-0.66,-0.24 L0.66,-0.24 0.66,0.24 -0.66,0.24  z" class="primitive"/>
      </g>
      <g transform="translate(184.01,52)" fill="#BBCBBB">
        <path d="M-0.66,-0.24 L0.66,-0.24 0.66,0.24 -0.66,0.24  z" class="primitive"/>
      </g>
      <g transform="translate(184.01,51.51)" fill="#BDCABA">
        <path d="M-0.66,-0.24 L0.66,-0.24 0.66,0.24 -0.66,0.24  z" class="primitive"/>
      </g>
      <g transform="translate(184.01,51.03)" fill="#BFCAB8">
        <path d="M-0.66,-0.24 L0.66,-0.24 0.66,0.24 -0.66,0.24  z" class="primitive"/>
      </g>
      <g transform="translate(184.01,50.54)" fill="#C2C9B7">
        <path d="M-0.66,-0.24 L0.66,-0.24 0.66,0.24 -0.66,0.24  z" class="primitive"/>
      </g>
      <g transform="translate(184.01,50.05)" fill="#C4C9B6">
        <path d="M-0.66,-0.24 L0.66,-0.24 0.66,0.24 -0.66,0.24  z" class="primitive"/>
      </g>
      <g transform="translate(184.01,49.57)" fill="#C6C8B5">
        <path d="M-0.66,-0.24 L0.66,-0.24 0.66,0.24 -0.66,0.24  z" class="primitive"/>
      </g>
      <g transform="translate(184.01,49.08)" fill="#C9C7B4">
        <path d="M-0.66,-0.24 L0.66,-0.24 0.66,0.24 -0.66,0.24  z" class="primitive"/>
      </g>
      <g transform="translate(184.01,48.6)" fill="#CCC7B2">
        <path d="M-0.66,-0.24 L0.66,-0.24 0.66,0.24 -0.66,0.24  z" class="primitive"/>
      </g>
      <g transform="translate(184.01,48.11)" fill="#CFC6AE">
        <path d="M-0.66,-0.24 L0.66,-0.24 0.66,0.24 -0.66,0.24  z" class="primitive"/>
      </g>
      <g transform="translate(184.01,47.63)" fill="#D4C5AA">
        <path d="M-0.66,-0.24 L0.66,-0.24 0.66,0.24 -0.66,0.24  z" class="primitive"/>
      </g>
      <g transform="translate(184.01,47.14)" fill="#D8C3A6">
        <path d="M-0.66,-0.24 L0.66,-0.24 0.66,0.24 -0.66,0.24  z" class="primitive"/>
      </g>
      <g transform="translate(184.01,46.65)" fill="#D3B79A">
        <path d="M-0.66,-0.24 L0.66,-0.24 0.66,0.24 -0.66,0.24  z" class="primitive"/>
      </g>
      <g transform="translate(184.01,46.17)" fill="#CDAB8E">
        <path d="M-0.66,-0.24 L0.66,-0.24 0.66,0.24 -0.66,0.24  z" class="primitive"/>
      </g>
      <g transform="translate(184.01,45.68)" fill="#C89E82">
        <path d="M-0.66,-0.24 L0.66,-0.24 0.66,0.24 -0.66,0.24  z" class="primitive"/>
      </g>
      <g transform="translate(184.01,45.2)" fill="#C19177">
        <path d="M-0.66,-0.24 L0.66,-0.24 0.66,0.24 -0.66,0.24  z" class="primitive"/>
      </g>
      <g transform="translate(184.01,44.71)" fill="#BA836C">
        <path d="M-0.66,-0.24 L0.66,-0.24 0.66,0.24 -0.66,0.24  z" class="primitive"/>
      </g>
      <g transform="translate(184.01,44.23)" fill="#B27563">
        <path d="M-0.66,-0.24 L0.66,-0.24 0.66,0.24 -0.66,0.24  z" class="primitive"/>
      </g>
      <g transform="translate(184.01,43.74)" fill="#AA665A">
        <path d="M-0.66,-0.24 L0.66,-0.24 0.66,0.24 -0.66,0.24  z" class="primitive"/>
      </g>
      <g transform="translate(184.01,43.25)" fill="#A05752">
        <path d="M-0.66,-0.24 L0.66,-0.24 0.66,0.24 -0.66,0.24  z" class="primitive"/>
      </g>
      <g transform="translate(184.01,42.77)" fill="#96484A">
        <path d="M-0.66,-0.24 L0.66,-0.24 0.66,0.24 -0.66,0.24  z" class="primitive"/>
      </g>
      <g transform="translate(184.01,42.28)" fill="#8B3844">
        <path d="M-0.66,-0.24 L0.66,-0.24 0.66,0.24 -0.66,0.24  z" class="primitive"/>
      </g>
      <g transform="translate(184.01,41.8)" fill="#7E273E">
        <path d="M-0.66,-0.24 L0.66,-0.24 0.66,0.24 -0.66,0.24  z" class="primitive"/>
      </g>
      <g stroke="#FFFFFF" stroke-width="0.2" id="img-8055ba17-7">
        <g transform="translate(184.01,41.55)">
          <path fill="none" d="M-0.66,0 L0.66,0 " class="primitive"/>
        </g>
        <g transform="translate(184.01,51.27)">
          <path fill="none" d="M-0.66,0 L0.66,0 " class="primitive"/>
        </g>
        <g transform="translate(184.01,60.98)">
          <path fill="none" d="M-0.66,0 L0.66,0 " class="primitive"/>
        </g>
      </g>
    </g>
    <g fill="#362A35" font-size="3.88" font-family="'PT Sans','Helvetica Neue','Helvetica',sans-serif" stroke="#000000" stroke-opacity="0.000" id="img-8055ba17-8">
      <g transform="translate(183.35,37.55)">
        <g class="primitive">
          <text dy="-0em">scheduled</text>
        </g>
      </g>
    </g>
  </g>
  <g clip-path="url(#img-8055ba17-9)">
    <g id="img-8055ba17-10">
      <g pointer-events="visible" stroke-width="0.3" fill="#000000" fill-opacity="0.000" stroke="#000000" stroke-opacity="0.000" class="guide background" id="img-8055ba17-11">
        <g transform="translate(99.52,43.66)" id="img-8055ba17-12">
          <path d="M-81.83,-38.66 L81.83,-38.66 81.83,38.66 -81.83,38.66  z" class="primitive"/>
        </g>
      </g>
      <g class="guide ygridlines xfixed" stroke-dasharray="0.5,0.5" stroke-width="0.2" stroke="#D0D0E0" id="img-8055ba17-13">
        <g transform="translate(99.52,56.54)" id="img-8055ba17-14">
          <path fill="none" d="M-81.83,0 L81.83,0 " class="primitive"/>
        </g>
        <g transform="translate(99.52,30.77)" id="img-8055ba17-15">
          <path fill="none" d="M-81.83,0 L81.83,0 " class="primitive"/>
        </g>
      </g>
      <g class="guide xgridlines yfixed" stroke-dasharray="0.5,0.5" stroke-width="0.2" stroke="#D0D0E0" id="img-8055ba17-16">
        <g transform="translate(34.06,43.66)" id="img-8055ba17-17">
          <path fill="none" d="M0,-38.66 L0,38.66 " class="primitive"/>
        </g>
        <g transform="translate(50.42,43.66)" id="img-8055ba17-18">
          <path fill="none" d="M0,-38.66 L0,38.66 " class="primitive"/>
        </g>
        <g transform="translate(66.79,43.66)" id="img-8055ba17-19">
          <path fill="none" d="M0,-38.66 L0,38.66 " class="primitive"/>
        </g>
        <g transform="translate(83.16,43.66)" id="img-8055ba17-20">
          <path fill="none" d="M0,-38.66 L0,38.66 " class="primitive"/>
        </g>
        <g transform="translate(99.52,43.66)" id="img-8055ba17-21">
          <path fill="none" d="M0,-38.66 L0,38.66 " class="primitive"/>
        </g>
        <g transform="translate(115.89,43.66)" id="img-8055ba17-22">
          <path fill="none" d="M0,-38.66 L0,38.66 " class="primitive"/>
        </g>
        <g transform="translate(132.25,43.66)" id="img-8055ba17-23">
          <path fill="none" d="M0,-38.66 L0,38.66 " class="primitive"/>
        </g>
        <g transform="translate(148.62,43.66)" id="img-8055ba17-24">
          <path fill="none" d="M0,-38.66 L0,38.66 " class="primitive"/>
        </g>
        <g transform="translate(164.99,43.66)" id="img-8055ba17-25">
          <path fill="none" d="M0,-38.66 L0,38.66 " class="primitive"/>
        </g>
      </g>
      <g class="plotpanel" id="img-8055ba17-26">
        <metadata>
          <boundingbox value="17.69166666666669mm 5.0mm 163.66mm 77.315mm"/>
          <unitbox value="0.5 3.5 10.0 -3.0"/>
        </metadata>
        <g shape-rendering="crispEdges" class="geometry" stroke="#000000" stroke-opacity="0.000" id="img-8055ba17-27">
          <g transform="translate(25.9,69.4)" id="img-8055ba17-28" fill="#7E273E" fill-opacity="0.5">
            <path d="M-8.21,-12.91 L8.21,-12.91 8.21,12.91 -8.21,12.91  z" class="primitive"/>
          </g>
          <g transform="translate(42.27,69.4)" id="img-8055ba17-29" fill="#004D84" fill-opacity="0.5">
            <path d="M-8.21,-12.91 L8.21,-12.91 8.21,12.91 -8.21,12.91  z" class="primitive"/>
          </g>
          <g transform="translate(58.63,69.4)" id="img-8055ba17-30" fill="#004D84" fill-opacity="0.5">
            <path d="M-8.21,-12.91 L8.21,-12.91 8.21,12.91 -8.21,12.91  z" class="primitive"/>
          </g>
          <g transform="translate(75,69.4)" id="img-8055ba17-31" fill="#004D84" fill-opacity="0.5">
            <path d="M-8.21,-12.91 L8.21,-12.91 8.21,12.91 -8.21,12.91  z" class="primitive"/>
          </g>
          <g transform="translate(91.36,69.4)" id="img-8055ba17-32" fill="#004D84" fill-opacity="0.5">
            <path d="M-8.21,-12.91 L8.21,-12.91 8.21,12.91 -8.21,12.91  z" class="primitive"/>
          </g>
          <g transform="translate(107.73,69.4)" id="img-8055ba17-33" fill="#7E273E" fill-opacity="0.5">
            <path d="M-8.21,-12.91 L8.21,-12.91 8.21,12.91 -8.21,12.91  z" class="primitive"/>
          </g>
          <g transform="translate(124.1,69.4)" id="img-8055ba17-34" fill="#7E273E" fill-opacity="0.5">
            <path d="M-8.21,-12.91 L8.21,-12.91 8.21,12.91 -8.21,12.91  z" class="primitive"/>
          </g>
          <g transform="translate(140.46,69.4)" id="img-8055ba17-35" fill="#7E273E" fill-opacity="0.5">
            <path d="M-8.21,-12.91 L8.21,-12.91 8.21,12.91 -8.21,12.91  z" class="primitive"/>
          </g>
          <g transform="translate(156.83,69.4)" id="img-8055ba17-36" fill="#004D84" fill-opacity="0.5">
            <path d="M-8.21,-12.91 L8.21,-12.91 8.21,12.91 -8.21,12.91  z" class="primitive"/>
          </g>
          <g transform="translate(173.19,69.4)" id="img-8055ba17-37" fill="#004D84" fill-opacity="0.5">
            <path d="M-8.21,-12.91 L8.21,-12.91 8.21,12.91 -8.21,12.91  z" class="primitive"/>
          </g>
          <g transform="translate(25.9,43.63)" id="img-8055ba17-38" fill="#004D84" fill-opacity="0.5">
            <path d="M-8.21,-12.91 L8.21,-12.91 8.21,12.91 -8.21,12.91  z" class="primitive"/>
          </g>
          <g transform="translate(42.27,43.63)" id="img-8055ba17-39" fill="#7E273E" fill-opacity="0.5">
            <path d="M-8.21,-12.91 L8.21,-12.91 8.21,12.91 -8.21,12.91  z" class="primitive"/>
          </g>
          <g transform="translate(58.63,43.63)" id="img-8055ba17-40" fill="#7E273E" fill-opacity="0.5">
            <path d="M-8.21,-12.91 L8.21,-12.91 8.21,12.91 -8.21,12.91  z" class="primitive"/>
          </g>
          <g transform="translate(75,43.63)" id="img-8055ba17-41" fill="#7E273E" fill-opacity="0.5">
            <path d="M-8.21,-12.91 L8.21,-12.91 8.21,12.91 -8.21,12.91  z" class="primitive"/>
          </g>
          <g transform="translate(91.36,43.63)" id="img-8055ba17-42" fill="#004D84" fill-opacity="0.5">
            <path d="M-8.21,-12.91 L8.21,-12.91 8.21,12.91 -8.21,12.91  z" class="primitive"/>
          </g>
          <g transform="translate(107.73,43.63)" id="img-8055ba17-43" fill="#004D84" fill-opacity="0.5">
            <path d="M-8.21,-12.91 L8.21,-12.91 8.21,12.91 -8.21,12.91  z" class="primitive"/>
          </g>
          <g transform="translate(124.1,43.63)" id="img-8055ba17-44" fill="#004D84" fill-opacity="0.5">
            <path d="M-8.21,-12.91 L8.21,-12.91 8.21,12.91 -8.21,12.91  z" class="primitive"/>
          </g>
          <g transform="translate(140.46,43.63)" id="img-8055ba17-45" fill="#004D84" fill-opacity="0.5">
            <path d="M-8.21,-12.91 L8.21,-12.91 8.21,12.91 -8.21,12.91  z" class="primitive"/>
          </g>
          <g transform="translate(156.83,43.63)" id="img-8055ba17-46" fill="#004D84" fill-opacity="0.5">
            <path d="M-8.21,-12.91 L8.21,-12.91 8.21,12.91 -8.21,12.91  z" class="primitive"/>
          </g>
          <g transform="translate(173.19,43.63)" id="img-8055ba17-47" fill="#004D84" fill-opacity="0.5">
            <path d="M-8.21,-12.91 L8.21,-12.91 8.21,12.91 -8.21,12.91  z" class="primitive"/>
          </g>
          <g transform="translate(25.9,17.86)" id="img-8055ba17-48" fill="#004D84" fill-opacity="0.5">
            <path d="M-8.21,-12.91 L8.21,-12.91 8.21,12.91 -8.21,12.91  z" class="primitive"/>
          </g>
          <g transform="translate(42.27,17.86)" id="img-8055ba17-49" fill="#004D84" fill-opacity="0.5">
            <path d="M-8.21,-12.91 L8.21,-12.91 8.21,12.91 -8.21,12.91  z" class="primitive"/>
          </g>
          <g transform="translate(58.63,17.86)" id="img-8055ba17-50" fill="#004D84" fill-opacity="0.5">
            <path d="M-8.21,-12.91 L8.21,-12.91 8.21,12.91 -8.21,12.91  z" class="primitive"/>
          </g>
          <g transform="translate(75,17.86)" id="img-8055ba17-51" fill="#004D84" fill-opacity="0.5">
            <path d="M-8.21,-12.91 L8.21,-12.91 8.21,12.91 -8.21,12.91  z" class="primitive"/>
          </g>
          <g transform="translate(91.36,17.86)" id="img-8055ba17-52" fill="#7E273E" fill-opacity="0.5">
            <path d="M-8.21,-12.91 L8.21,-12.91 8.21,12.91 -8.21,12.91  z" class="primitive"/>
          </g>
          <g transform="translate(107.73,17.86)" id="img-8055ba17-53" fill="#004D84" fill-opacity="0.5">
            <path d="M-8.21,-12.91 L8.21,-12.91 8.21,12.91 -8.21,12.91  z" class="primitive"/>
          </g>
          <g transform="translate(124.1,17.86)" id="img-8055ba17-54" fill="#004D84" fill-opacity="0.5">
            <path d="M-8.21,-12.91 L8.21,-12.91 8.21,12.91 -8.21,12.91  z" class="primitive"/>
          </g>
          <g transform="translate(140.46,17.86)" id="img-8055ba17-55" fill="#004D84" fill-opacity="0.5">
            <path d="M-8.21,-12.91 L8.21,-12.91 8.21,12.91 -8.21,12.91  z" class="primitive"/>
          </g>
          <g transform="translate(156.83,17.86)" id="img-8055ba17-56" fill="#7E273E" fill-opacity="0.5">
            <path d="M-8.21,-12.91 L8.21,-12.91 8.21,12.91 -8.21,12.91  z" class="primitive"/>
          </g>
          <g transform="translate(173.19,17.86)" id="img-8055ba17-57" fill="#7E273E" fill-opacity="0.5">
            <path d="M-8.21,-12.91 L8.21,-12.91 8.21,12.91 -8.21,12.91  z" class="primitive"/>
          </g>
        </g>
      </g>
    </g>
  </g>
  <g class="guide ylabels" font-size="2.82" font-family="'PT Sans Caption','Helvetica Neue','Helvetica',sans-serif" fill="#6C606B" id="img-8055ba17-58">
    <g transform="translate(16.69,69.43)" id="img-8055ba17-59">
      <g class="primitive">
        <text text-anchor="end" dy="0.35em">s1</text>
      </g>
    </g>
    <g transform="translate(16.69,43.66)" id="img-8055ba17-60">
      <g class="primitive">
        <text text-anchor="end" dy="0.35em">s2</text>
      </g>
    </g>
    <g transform="translate(16.69,17.89)" id="img-8055ba17-61">
      <g class="primitive">
        <text text-anchor="end" dy="0.35em">s3</text>
      </g>
    </g>
  </g>
  <g font-size="3.88" font-family="'PT Sans','Helvetica Neue','Helvetica',sans-serif" fill="#564A55" stroke="#000000" stroke-opacity="0.000" id="img-8055ba17-62">
    <g transform="translate(8.81,41.66)" id="img-8055ba17-63">
      <g class="primitive">
        <text text-anchor="middle" dy="0.35em" transform="rotate(-90,0, 2)">slot</text>
      </g>
    </g>
  </g>
</g>
<defs>
  <clipPath id="img-8055ba17-9">
    <path d="M17.69,5 L181.35,5 181.35,82.32 17.69,82.32 " />
  </clipPath>
</defs>
</svg>
